# xmcd
#
# Track frame offsets:
#	150
#	12452
#	24678
#	37402
#	47081
#	58566
#	69181
#	80802
#	92403
#	104343
#	121063
#
# Disc length: 1743 seconds
#
# Revision: 1
# Processed by: cddbd v1.5.2PL0 Copyright (c) Steve Scherf et al.
# Submitted via: audiograbber 1.83.01
#
DISCID=8e06cd0b
DTITLE=George Jones - I Wish Tonight Would Never End
DYEAR=1963
DGENRE=Country
TTITLE0=Lonesome Life
TTITLE1=The Old, Old House
TTITLE2=I Saw Me
TTITLE3=I Wish Tonight Would Never End
TTITLE4=Flame In My Heart
TTITLE5=Ain't It Funny What A Fool Will Do
TTITLE6=There's No Justice
TTITLE7=We Must Have Been Out Of Our Minds (with Melba Montgome
TTITLE8=I Can't Change Over Night
TTITLE9=In the Shadow Of A Lie
TTITLE10=Seasons Of My Heart
EXTD=
EXTT0=
EXTT1=
EXTT2=
EXTT3=
EXTT4=
EXTT5=
EXTT6=
EXTT7=
EXTT8=
EXTT9=
EXTT10=
PLAYORDER=
